Transformers Dark of the Moon 2011 TS V2 XViD - IMAGiNE 

               
Ripper ...........: IMAGiNE              
IMDB Rating.......: 6.7/10                
Video Codec.......: XViD                 
Release Date......: 26/07/11
Audio Codec.......: MP3                  
Theatre Date......: 28/06/11
Audio Bitrate.....: 128                  
Runtime...........: 2h 20mn
Subtitles.........: NIL                  
Language..........: ENGLISH
Resolution........: 720 x 304            
IMDb URL..........: http://www.imdb.com/title/tt1399103


DETAILS:


Video
ID                               : 0
Format                           : MPEG-4 Visual
Format profile                   : Advanced Simple@L5
Format settings, BVOP            : 2
Format settings, QPel            : No
Format settings, GMC             : No warppoints
Format settings, Matrix          : Default (MPEG)
Muxing mode                      : Packed bitstream
Codec ID                         : XVID
Codec ID/Hint                    : XviD
Duration                         : 2h 20mn
Bit rate                         : 2 335 Kbps
Width                            : 720 pixels
Height                           : 304 pixels
Display aspect ratio             : 2.35:1
Frame rate                       : 25.000 fps
Color space                      : YUV
Chroma subsampling               : 4:2:0
Bit depth                        : 8 bits
Scan type                        : Progressive
Compression mode                 : Lossy
Bits/(Pixel*Frame)               : 0.427
Stream size                      : 2.29 GiB (94%)
Writing library                  : XviD 64

Audio
ID                               : 1
Format                           : MPEG Audio
Format version                   : Version 1
Format profile                   : Layer 3
Mode                             : Joint stereo
Mode extension                   : MS Stereo
Codec ID                         : 55
Codec ID/Hint                    : MP3
Duration                         : 2h 20mn
Bit rate mode                    : Constant
Bit rate                         : 128 Kbps
Channel(s)                       : 2 channels
Sampling rate                    : 44.1 KHz
Compression mode                 : Lossy
Stream size                      : 129 MiB (5%)
Alignment                        : Split accross interleaves
Interleave, duration             : 40 ms (1.00 video frame)
Interleave, preload duration     : 500 ms
Writing library                  : LAME3.98r


Plot:


The Autobots learn of a Cybertronian spacecraft hidden on the Moon, and race against the Decepticons to reach it and to learn its secrets.


SOURCES:


VIDEO:..Transformers 3 Dark of the Moon TELESYNC German 720p x264-PFD Thanks 

AUDIO:..Thanx Matey


NOTES:

IMAGiNE bringing you another release..........
Transformers Dark of the Moon TS V2 Here we have V2 of Transformers 3.......

PDF's video was very nice,so we made a script to resize and sharpen Then 
adjusted this and that..... Audio is nice LiNE we filtered synced and muxed


Screens:

 
http://leetleech.org/images/41032971960411443201.png
 
http://leetleech.org/images/49585467676820142741.png
 
http://leetleech.org/images/13038349060241935969.png


ENJOY!